<?xml version="1.0" encoding="UTF-8" standalone="no"?>
<svg
   width="270"
   height="134.17811045556732"
   viewBox="0 0 270 134.17811045556732"
   class="css-1j8o68f"
   version="1.1"
   id="svg69"
   sodipodi:docname="logo.svg"
   inkscape:version="1.1.1 (3bf5ae0d25, 2021-09-20)"
   xmlns:inkscape="http://www.inkscape.org/namespaces/inkscape"
   xmlns:sodipodi="http://sodipodi.sourceforge.net/DTD/sodipodi-0.dtd"
   xmlns="http://www.w3.org/2000/svg"
   xmlns:svg="http://www.w3.org/2000/svg">
  <defs
     id="defs73">
    <linearGradient
       id="linearGradient5099"
       inkscape:swatch="solid">
      <stop
         style="stop-color:#ffffff;stop-opacity:1;"
         offset="0"
         id="stop5097" />
    </linearGradient>
    <marker
       style="overflow:visible;"
       id="Arrow1Lend"
       refX="0.0"
       refY="0.0"
       orient="auto"
       inkscape:stockid="Arrow1Lend"
       inkscape:isstock="true">
      <path
         transform="scale(0.8) rotate(180) translate(12.5,0)"
         style="fill-rule:evenodd;fill:context-stroke;stroke:context-stroke;stroke-width:1.0pt;"
         d="M 0.0,0.0 L 5.0,-5.0 L -12.5,0.0 L 5.0,5.0 L 0.0,0.0 z "
         id="path3790" />
    </marker>
    <linearGradient
       id="linearGradient3783"
       inkscape:swatch="solid">
      <stop
         style="stop-color:#ffffff;stop-opacity:1;"
         offset="0"
         id="stop3781" />
    </linearGradient>
  </defs>
  <sodipodi:namedview
     id="namedview71"
     pagecolor="#ffffff"
     bordercolor="#666666"
     borderopacity="1.0"
     inkscape:pageshadow="2"
     inkscape:pageopacity="0.0"
     inkscape:pagecheckerboard="0"
     showgrid="false"
     inkscape:zoom="5.3333333"
     inkscape:cx="97.6875"
     inkscape:cy="67.125"
     inkscape:window-width="1920"
     inkscape:window-height="1010"
     inkscape:window-x="0"
     inkscape:window-y="33"
     inkscape:window-maximized="1"
     inkscape:current-layer="svg69"
     inkscape:snap-global="true" />
  <g
     id="SvgjsG1288"
     featurekey="symbolFeature-0"
     transform="matrix(1.9226835,0,0,2.4635501,37.2095,-56.274242)"
     fill="#000000"
     style="stroke:none;stroke-width:0.99982569;stroke-miterlimit:4;stroke-dasharray:none;stroke-dashoffset:0;stroke-opacity:1">
    <g
       id="g66"
       style="stroke:none;stroke-width:0.99982569;stroke-miterlimit:4;stroke-dasharray:none;stroke-dashoffset:0;stroke-opacity:1">
      <g
         id="g64"
         style="stroke:none;stroke-width:0.99982569;stroke-miterlimit:4;stroke-dasharray:none;stroke-dashoffset:0;stroke-opacity:1">
        <path
           fill="none"
           d="m 41.566,71.772 c -1.136,-1.112 -2.418,-2.321 -3.331,-3.694 -0.643,0.051 -1.285,0.109 -1.926,0.173 0.02,0.01 0.041,0.005 0.06,0.021 1.99,1.706 4.171,3.096 6.294,4.583 -0.381,-0.371 -0.748,-0.742 -1.097,-1.083 z"
           id="path2"
           style="stroke:none;stroke-width:0.99982569;stroke-miterlimit:4;stroke-dasharray:none;stroke-dashoffset:0;stroke-opacity:1" />
        <path
           fill="none"
           d="m 46.153,74.223 c 0.26,-0.005 0.521,-0.01 0.781,-0.015 -0.471,-0.162 -0.937,-0.365 -1.398,-0.606 0.214,0.201 0.422,0.407 0.617,0.621 z"
           id="path4"
           style="stroke:none;stroke-width:0.99982569;stroke-miterlimit:4;stroke-dasharray:none;stroke-dashoffset:0;stroke-opacity:1" />
        <path
           fill="none"
           d="m 36.041,68.6 c -0.102,-0.114 -0.073,-0.245 0.008,-0.323 -0.814,0.084 -1.626,0.179 -2.435,0.287 1.17,0.992 2.353,1.971 3.58,2.889 1.26,0.943 2.69,1.734 3.84,2.807 0.018,0.017 0.026,0.035 0.04,0.053 0.622,-0.008 1.244,-0.018 1.865,-0.029 C 40.31,72.94 37.948,70.732 36.041,68.6 Z"
           id="path6"
           style="stroke:none;stroke-width:0.99982569;stroke-miterlimit:4;stroke-dasharray:none;stroke-dashoffset:0;stroke-opacity:1" />
        <path
           fill="none"
           d="m 44.854,67.752 c -0.643,0.014 -1.286,0.032 -1.929,0.056 1.31,1.138 2.658,2.233 4.075,3.235 1.441,1.019 3.049,1.826 4.429,2.917 0.062,0.049 0.094,0.112 0.113,0.179 0.237,-10e-4 0.474,-0.002 0.712,-0.003 -1.24,-0.729 -2.38,-1.829 -3.428,-2.714 -1.381,-1.165 -2.703,-2.387 -3.972,-3.67 z"
           id="path8"
           style="stroke:none;stroke-width:0.99982569;stroke-miterlimit:4;stroke-dasharray:none;stroke-dashoffset:0;stroke-opacity:1" />
        <path
           fill="none"
           d="m 50.84,67.724 c -0.398,-0.003 -0.796,-0.007 -1.192,-0.009 -0.34,-0.002 -0.68,-0.001 -1.02,-0.001 1.297,1.067 2.6,2.129 3.94,3.142 1.269,0.96 2.76,1.751 3.895,2.861 0.157,0.153 0.164,0.324 0.094,0.463 0.82,0.015 1.643,0.032 2.47,0.049 -1.294,-0.378 -2.423,-1.26 -3.46,-2.129 -1.639,-1.375 -3.219,-2.849 -4.727,-4.376 z"
           id="path10"
           style="stroke:none;stroke-width:0.99982569;stroke-miterlimit:4;stroke-dasharray:none;stroke-dashoffset:0;stroke-opacity:1" />
        <path
           fill="none"
           d="m 47.838,67.714 c -0.661,0.002 -1.323,0.009 -1.985,0.019 1.204,0.954 2.405,1.912 3.625,2.846 1.36,1.04 3.112,1.983 4.186,3.314 0.057,0.071 0.087,0.159 0.096,0.25 0.57,0.005 1.142,0.011 1.717,0.02 -1.338,-0.692 -2.57,-1.798 -3.717,-2.739 -1.399,-1.146 -2.699,-2.383 -3.922,-3.71 z"
           id="path12"
           style="stroke:none;stroke-width:0.99982569;stroke-miterlimit:4;stroke-dasharray:none;stroke-dashoffset:0;stroke-opacity:1" />
        <path
           fill="none"
           d="m 32.8,68.676 c -0.661,0.096 -1.321,0.199 -1.979,0.313 2.379,1.652 5.186,3.239 7.195,5.35 0.475,0 0.951,-0.004 1.426,-0.008 -1.074,-0.677 -2.073,-1.559 -3.026,-2.342 -1.267,-1.043 -2.465,-2.148 -3.616,-3.313 z"
           id="path14"
           style="stroke:none;stroke-width:0.99982569;stroke-miterlimit:4;stroke-dasharray:none;stroke-dashoffset:0;stroke-opacity:1" />
        <path
           fill="none"
           d="m 18.553,72.479 c 1.689,0.404 3.388,0.727 5.094,0.979 -0.943,-0.58 -1.841,-1.26 -2.621,-1.942 -0.831,0.296 -1.654,0.621 -2.473,0.963 z"
           id="path16"
           style="stroke:none;stroke-width:0.99982569;stroke-miterlimit:4;stroke-dasharray:none;stroke-dashoffset:0;stroke-opacity:1" />
        <path
           fill="none"
           d="m 68.045,52.149 c 4.519,0.111 7.872,-1.164 10.82,-3.899 -0.7,-0.2 -1.367,-0.596 -1.849,-1.152 -0.117,-0.134 -0.212,-0.288 -0.315,-0.434 -1.62,2.304 -5.74,3.43 -8.116,3.635 -5.363,0.462 -8.35,-0.687 -11.757,-3.962 2.446,3.976 5.987,5.683 11.217,5.812 z"
           id="path18"
           style="stroke:none;stroke-width:0.99982569;stroke-miterlimit:4;stroke-dasharray:none;stroke-dashoffset:0;stroke-opacity:1" />
        <path
           fill="none"
           d="m 31.955,52.149 c 3.956,-0.06 6.915,-1.043 9.174,-3.207 -2.309,1.63 -5.358,2.328 -8.202,2.429 -4.054,0.144 -7.17,-1.982 -9.342,-5.13 -0.177,0.304 -0.373,0.594 -0.601,0.857 -0.479,0.552 -1.14,0.945 -1.835,1.147 2.965,2.704 6.4,3.971 10.806,3.904 z"
           id="path20"
           style="stroke:none;stroke-width:0.99982569;stroke-miterlimit:4;stroke-dasharray:none;stroke-dashoffset:0;stroke-opacity:1" />
        <path
           fill="none"
           d="m 55.457,67.795 c -1.175,-0.03 -2.35,-0.049 -3.523,-0.061 2.696,2.105 5.191,4.443 8.447,5.643 0.391,0.144 0.467,0.629 0.244,0.884 0.536,0.01 1.074,0.019 1.611,0.028 -0.873,-0.638 -1.69,-1.386 -2.384,-1.958 -1.626,-1.34 -3.131,-2.846 -4.395,-4.536 z"
           id="path22"
           style="stroke:none;stroke-width:0.99982569;stroke-miterlimit:4;stroke-dasharray:none;stroke-dashoffset:0;stroke-opacity:1" />
        <path
           fill="none"
           d="m 22.581,70.993 c -0.384,0.124 -0.768,0.254 -1.15,0.387 0.696,0.433 1.382,0.881 2.092,1.292 0.629,0.365 1.298,0.68 1.94,1.033 0.493,0.059 0.986,0.11 1.48,0.159 -0.348,-0.224 -0.691,-0.45 -1.03,-0.653 -1.142,-0.687 -2.282,-1.395 -3.332,-2.218 z"
           id="path24"
           style="stroke:none;stroke-width:0.99982569;stroke-miterlimit:4;stroke-dasharray:none;stroke-dashoffset:0;stroke-opacity:1" />
        <path
           fill="none"
           d="m 30.269,69.091 c -0.597,0.108 -1.193,0.223 -1.786,0.347 1.109,0.708 2.214,1.42 3.299,2.165 1.217,0.836 2.583,1.601 3.588,2.696 0.006,0.006 0.003,0.012 0.008,0.018 0.403,0.006 0.806,0.011 1.209,0.014 -2.233,-1.418 -4.261,-3.423 -6.247,-5.053 -0.063,-0.052 -0.078,-0.119 -0.071,-0.187 z"
           id="path26"
           style="stroke:none;stroke-width:0.99982569;stroke-miterlimit:4;stroke-dasharray:none;stroke-dashoffset:0;stroke-opacity:1" />
        <path
           fill="none"
           d="m 27.85,69.578 c -0.722,0.159 -1.441,0.331 -2.157,0.517 2.223,1.212 4.753,2.197 6.685,3.765 0.131,0.106 0.126,0.256 0.06,0.378 0.483,0.019 0.965,0.039 1.449,0.052 -1.06,-0.672 -2.033,-1.54 -3.012,-2.286 -1.029,-0.785 -2.026,-1.606 -3.025,-2.426 z"
           id="path28"
           style="stroke:none;stroke-width:0.99982569;stroke-miterlimit:4;stroke-dasharray:none;stroke-dashoffset:0;stroke-opacity:1" />
        <path
           fill="none"
           d="m 23.47,70.717 c 1.028,0.456 2.03,0.975 3.011,1.52 1.005,0.558 2.173,1.067 3.048,1.849 0.589,0.04 1.18,0.072 1.77,0.102 -2.258,-0.821 -4.393,-2.53 -6.305,-3.916 -0.51,0.139 -1.017,0.292 -1.524,0.445 z"
           id="path30"
           style="stroke:none;stroke-width:0.99982569;stroke-miterlimit:4;stroke-dasharray:none;stroke-dashoffset:0;stroke-opacity:1" />
        <path
           fill="none"
           d="m 42.148,67.84 c -0.856,0.037 -1.712,0.081 -2.567,0.137 0.553,0.58 1.092,1.177 1.635,1.767 0.78,0.655 1.581,1.284 2.429,1.855 1.24,0.836 2.664,1.442 3.849,2.341 0.085,0.064 0.104,0.166 0.084,0.254 0.751,-0.015 1.502,-0.027 2.252,-0.038 -2.869,-1.494 -5.492,-4.006 -7.682,-6.316 z"
           id="path32"
           style="stroke:none;stroke-width:0.99982569;stroke-miterlimit:4;stroke-dasharray:none;stroke-dashoffset:0;stroke-opacity:1" />
        <path
           fill="none"
           d="m 72.009,69.533 c -0.821,-0.183 -1.648,-0.344 -2.477,-0.492 0.603,0.54 1.199,1.09 1.808,1.621 1.156,1.007 2.758,1.971 3.645,3.248 0.586,-0.06 1.168,-0.131 1.748,-0.208 -1.764,-1.057 -3.376,-2.615 -4.724,-4.169 z"
           id="path34"
           style="stroke:none;stroke-width:0.99982569;stroke-miterlimit:4;stroke-dasharray:none;stroke-dashoffset:0;stroke-opacity:1" />
        <path
           fill="none"
           d="m 90.956,30.714 c -1.061,0.221 -2.074,0.755 -2.823,1.541 -0.755,0.793 -1.282,1.837 -1.546,2.892 -0.156,0.626 -0.139,1.26 -0.321,1.854 0.433,1.109 -1.117,2.199 -1.999,1.261 -1.881,-2.001 -4.821,-1.173 -5.85,1.268 -0.64,1.516 -0.429,8.029 2.396,6.671 0.175,-0.204 0.369,-0.296 0.564,-0.321 0.378,-0.209 0.713,0.038 0.843,0.386 0.269,0.325 0.402,0.788 0.207,1.209 -4.651,10.057 -30.219,9.787 -27.919,-2.842 -0.285,-0.907 0.345,-2.044 1.5,-1.65 3.291,1.123 5.11,-2.056 5.158,-4.917 0.028,-1.647 -0.172,-3.54 -1.661,-4.39 -0.695,-0.397 -1.315,-0.481 -1.97,-0.466 -0.064,0.136 -0.113,0.278 -0.186,0.41 -0.733,1.325 -2.783,0.13 -2.031,-1.187 1.042,-1.826 1.167,-4.191 -0.302,-5.846 -1.106,-1.246 -2.733,-1.68 -4.347,-1.712 -0.04,0.021 -0.078,0.044 -0.133,0.039 -0.176,-0.016 -0.355,-0.024 -0.534,-0.032 -0.18,0.008 -0.361,0.016 -0.538,0.032 -0.055,0.005 -0.095,-0.018 -0.135,-0.04 -1.613,0.031 -3.251,0.46 -4.345,1.713 -1.459,1.67 -1.352,4.007 -0.302,5.846 0.753,1.319 -1.299,2.511 -2.031,1.187 -0.074,-0.134 -0.125,-0.279 -0.19,-0.418 -1.051,-0.045 -2.08,0.082 -2.855,0.982 -0.746,0.867 -0.782,2.788 -0.773,3.883 0.025,2.868 1.9,6.029 5.158,4.917 1.157,-0.395 1.784,0.742 1.5,1.649 2.3,12.625 -23.262,12.91 -27.919,2.843 -0.197,-0.426 -0.063,-0.888 0.208,-1.211 0.131,-0.348 0.469,-0.595 0.848,-0.38 0.193,0.025 0.386,0.117 0.558,0.318 2.829,1.361 3.041,-5.141 2.395,-6.672 -1.034,-2.451 -3.973,-3.265 -5.85,-1.268 -0.89,0.947 -2.425,-0.16 -1.999,-1.261 -0.181,-0.593 -0.166,-1.229 -0.321,-1.854 -0.261,-1.049 -0.79,-2.108 -1.546,-2.892 -0.758,-0.787 -1.756,-1.314 -2.823,-1.541 -0.928,-0.198 -1.792,0.006 -2.698,0.008 3.691,5.651 5.315,13.339 7.093,19.648 1.862,6.609 3.903,13.469 4.76,20.325 9.208,-4.92 21.381,-5.308 31.449,-5.327 10.958,-0.021 22.101,0.386 32.204,4.912 0.886,-6.713 2.885,-13.445 4.711,-19.91 1.792,-6.344 3.418,-13.98 7.132,-19.647 -0.922,0.004 -1.792,-0.207 -2.737,-0.01 z m -33.823,5.604 c 0.819,0 1.511,0.692 1.511,1.511 0,0.816 -0.694,1.511 -1.511,1.511 -0.819,0 -1.511,-0.691 -1.511,-1.511 0,-0.817 0.695,-1.511 1.511,-1.511 z m -14.65,3.66 c -1.892,0 -1.889,-2.936 0,-2.936 1.893,0 1.89,2.936 0,2.936 z m -23.337,0.645 c 1.778,0 1.775,2.759 0,2.759 -1.778,-10e-4 -1.775,-2.759 0,-2.759 z M 30.73,64.951 c -0.852,0 -1.571,-0.719 -1.571,-1.571 0,-0.849 0.722,-1.571 1.571,-1.571 0.852,0 1.571,0.719 1.571,1.571 0,0.849 -0.722,1.571 -1.571,1.571 z M 48.483,62.816 C 48.464,62.812 48.445,62.807 48.426,62.803 47.923,62.688 47.45,62.22 47.338,61.715 47.334,61.696 47.33,61.678 47.325,61.659 c -0.352,-1.582 1.562,-2.82 2.77,-1.613 1.203,1.202 -0.032,3.132 -1.612,2.77 z m 0.985,-32.037 c -1.892,0 -1.889,-2.936 0,-2.936 1.892,0 1.889,2.936 0,2.936 z m 21.018,33.734 c -0.957,0.278 -1.934,-0.495 -1.934,-1.474 0,-0.829 0.702,-1.528 1.528,-1.528 1.745,10e-4 2.051,2.524 0.406,3.002 z M 81.152,43.564 c -1.903,0 -1.9,-2.953 0,-2.953 1.903,0 1.9,2.953 0,2.953 z"
           id="path36"
           style="stroke:none;stroke-width:0.99982569;stroke-miterlimit:4;stroke-dasharray:none;stroke-dashoffset:0;stroke-opacity:1" />
        <path
           fill="none"
           d="m 74.139,70.052 c 0.47,0.361 0.932,0.73 1.428,1.063 1.12,0.753 2.469,1.259 3.571,2.016 0.105,0.015 0.197,0.065 0.278,0.147 0.749,-0.14 1.49,-0.302 2.226,-0.48 -0.002,-0.005 0,-0.012 -0.002,-0.017 -2.437,-1.152 -4.944,-2.045 -7.501,-2.729 z"
           id="path38"
           style="stroke:none;stroke-width:0.99982569;stroke-miterlimit:4;stroke-dasharray:none;stroke-dashoffset:0;stroke-opacity:1" />
        <path
           fill="none"
           d="m 59.293,67.94 c -0.945,-0.048 -1.891,-0.087 -2.837,-0.116 1.39,1.337 2.796,2.643 4.357,3.801 1.256,0.932 3.054,1.601 4.223,2.693 0.556,0.002 1.111,-0.001 1.667,-0.005 -0.979,-0.562 -1.904,-1.282 -2.706,-1.864 -1.777,-1.288 -3.316,-2.814 -4.704,-4.509 z"
           id="path40"
           style="stroke:none;stroke-width:0.99982569;stroke-miterlimit:4;stroke-dasharray:none;stroke-dashoffset:0;stroke-opacity:1" />
        <path
           fill="none"
           d="m 70.651,71.722 c -0.931,-0.941 -1.871,-1.9 -2.693,-2.945 -0.825,-0.126 -1.654,-0.234 -2.485,-0.331 0.987,1.018 2.056,1.944 3.231,2.76 1.156,0.802 3.21,1.392 3.864,2.664 0.042,0.082 0.055,0.162 0.051,0.237 0.147,-0.01 0.295,-0.017 0.443,-0.027 -0.884,-0.702 -1.672,-1.61 -2.411,-2.358 z"
           id="path42"
           style="stroke:none;stroke-width:0.99982569;stroke-miterlimit:4;stroke-dasharray:none;stroke-dashoffset:0;stroke-opacity:1" />
        <path
           fill="none"
           d="m 64.329,68.317 c -1.356,-0.139 -2.718,-0.245 -4.083,-0.326 1.41,1.363 2.939,2.593 4.604,3.638 1.548,0.971 3.553,1.407 4.897,2.622 0.359,-0.012 0.718,-0.025 1.077,-0.041 -1.043,-0.495 -2.055,-1.489 -2.803,-2.118 -1.354,-1.136 -2.57,-2.414 -3.692,-3.775 z"
           id="path44"
           style="stroke:none;stroke-width:0.99982569;stroke-miterlimit:4;stroke-dasharray:none;stroke-dashoffset:0;stroke-opacity:1" />
        <path
           d="m 94.508,28.772 c -2.319,-1.525 -6.052,-0.101 -7.786,1.73 -0.902,0.952 -1.964,2.999 -2.021,4.747 -3.28,-2.222 -8.175,0.652 -9.079,4.53 -0.339,1.451 -0.347,3.201 0.087,4.77 -0.036,0.067 -0.078,0.126 -0.099,0.211 -0.787,3.137 -7.032,3.969 -9.514,4.052 -2.126,0.07 -4.224,-0.042 -6.107,-1.177 -0.841,-0.507 -1.542,-1.124 -2.26,-1.722 3.719,-0.212 6.239,-4.522 6.01,-8.229 -0.13,-2.09 -0.675,-4.809 -2.63,-5.976 -0.975,-0.582 -2.013,-0.618 -3.005,-0.356 0.307,-1.973 -0.21,-4.064 -1.602,-5.582 -1.634,-1.781 -4.265,-2.604 -6.502,-1.714 -2.236,-0.89 -4.868,-0.067 -6.502,1.714 -1.393,1.518 -1.91,3.61 -1.602,5.583 -0.991,-0.262 -2.03,-0.225 -3.005,0.355 -1.963,1.167 -2.491,3.884 -2.631,5.976 -0.236,3.538 2.065,7.617 5.505,8.172 -2.712,2.931 -6.532,4.345 -10.692,3.931 -3.429,-0.341 -5.047,-2.313 -7.027,-4.524 0.666,-1.734 0.723,-3.803 0.331,-5.484 -0.905,-3.879 -5.8,-6.75 -9.08,-4.529 -0.056,-1.749 -1.12,-3.796 -2.021,-4.747 -1.734,-1.83 -5.468,-3.255 -7.786,-1.73 -0.52,0.342 -0.598,0.928 -0.37,1.371 0.576,6.691 3.765,13.506 5.584,19.929 2.053,7.25 3.261,14.751 5.342,21.972 -0.099,0.149 -0.128,0.314 -0.106,0.473 -0.295,0.502 -0.198,1.255 0.53,1.458 11.59,3.239 23.563,2.208 35.458,2.048 5.918,-0.079 11.836,-0.159 17.753,-0.238 4.674,-0.063 9.7,0.313 13.839,-2.179 0.329,-0.198 0.36,-0.574 0.213,-0.85 0.011,-0.027 0.031,-0.046 0.039,-0.075 2.196,-7.416 3.406,-15.147 5.52,-22.61 1.824,-6.441 5.008,-13.23 5.584,-19.93 0.231,-0.442 0.153,-1.027 -0.368,-1.37 z M 68.585,50.299 c 2.376,-0.204 6.496,-1.331 8.116,-3.635 0.103,0.146 0.198,0.3 0.315,0.434 0.482,0.556 1.149,0.952 1.849,1.152 -2.948,2.735 -6.301,4.01 -10.82,3.899 -5.23,-0.129 -8.771,-1.836 -11.217,-5.812 3.408,3.275 6.394,4.423 11.757,3.962 z M 22.984,47.098 c 0.228,-0.263 0.424,-0.553 0.601,-0.857 2.172,3.148 5.288,5.274 9.342,5.13 2.843,-0.101 5.893,-0.799 8.202,-2.429 -2.259,2.164 -5.218,3.147 -9.174,3.207 -4.406,0.067 -7.841,-1.2 -10.805,-3.904 0.694,-0.202 1.355,-0.595 1.834,-1.147 z m -4.431,25.381 c 0.819,-0.342 1.642,-0.667 2.473,-0.963 0.78,0.682 1.678,1.362 2.621,1.942 -1.707,-0.253 -3.405,-0.576 -5.094,-0.979 z m 6.91,1.226 c -0.642,-0.353 -1.311,-0.668 -1.94,-1.033 -0.71,-0.412 -1.396,-0.859 -2.092,-1.292 0.382,-0.133 0.765,-0.263 1.15,-0.387 1.05,0.823 2.19,1.531 3.332,2.217 0.339,0.204 0.682,0.429 1.03,0.653 -0.494,-0.049 -0.988,-0.099 -1.48,-0.158 z m 4.067,0.381 c -0.875,-0.781 -2.043,-1.291 -3.048,-1.849 -0.982,-0.545 -1.983,-1.065 -3.011,-1.52 0.507,-0.154 1.014,-0.306 1.524,-0.445 1.913,1.385 4.047,3.095 6.305,3.916 -0.591,-0.03 -1.181,-0.061 -1.77,-0.102 z m 2.908,0.151 c 0.066,-0.122 0.071,-0.272 -0.06,-0.378 -1.932,-1.568 -4.462,-2.554 -6.685,-3.765 0.716,-0.186 1.435,-0.358 2.157,-0.517 0.999,0.82 1.997,1.641 3.025,2.425 0.979,0.746 1.952,1.615 3.012,2.286 -0.484,-0.012 -0.967,-0.032 -1.449,-0.051 z m 2.941,0.08 C 35.374,74.311 35.376,74.304 35.371,74.299 34.365,73.205 33,72.439 31.783,71.603 c -1.085,-0.745 -2.19,-1.457 -3.299,-2.165 0.593,-0.124 1.189,-0.239 1.786,-0.347 -0.007,0.068 0.008,0.135 0.072,0.188 1.986,1.63 4.014,3.635 6.247,5.053 -0.404,-0.003 -0.807,-0.008 -1.21,-0.015 z m 2.637,0.022 c -2.009,-2.111 -4.816,-3.698 -7.195,-5.35 0.658,-0.114 1.318,-0.217 1.979,-0.313 1.151,1.165 2.349,2.27 3.617,3.313 0.953,0.783 1.952,1.665 3.026,2.342 -0.476,0.003 -0.952,0.007 -1.427,0.008 z m 3.058,-0.025 c -0.014,-0.018 -0.022,-0.036 -0.04,-0.053 -1.15,-1.073 -2.58,-1.864 -3.84,-2.807 -1.227,-0.919 -2.41,-1.897 -3.58,-2.889 0.81,-0.108 1.622,-0.203 2.435,-0.287 -0.081,0.078 -0.11,0.209 -0.008,0.323 1.907,2.132 4.269,4.34 6.898,5.685 -0.621,0.011 -1.243,0.02 -1.865,0.028 z m -4.765,-6.063 c 0.641,-0.064 1.283,-0.122 1.926,-0.173 0.913,1.374 2.195,2.583 3.331,3.694 0.349,0.341 0.715,0.712 1.096,1.084 -2.122,-1.488 -4.303,-2.878 -6.294,-4.583 -0.018,-0.017 -0.039,-0.012 -0.059,-0.022 z m 9.844,5.972 c -0.194,-0.214 -0.402,-0.42 -0.617,-0.622 0.461,0.241 0.928,0.444 1.398,0.606 -0.261,0.005 -0.521,0.01 -0.781,0.016 z m 1.425,-0.028 c 0.02,-0.088 0,-0.19 -0.084,-0.254 -1.185,-0.899 -2.609,-1.505 -3.849,-2.341 -0.848,-0.571 -1.648,-1.201 -2.429,-1.855 -0.543,-0.59 -1.081,-1.187 -1.635,-1.767 0.855,-0.056 1.711,-0.101 2.567,-0.137 2.19,2.309 4.813,4.822 7.682,6.317 -0.751,0.01 -1.501,0.022 -2.252,0.037 z m 3.964,-0.056 C 51.523,74.073 51.491,74.01 51.429,73.96 50.049,72.869 48.44,72.062 47,71.043 c -1.416,-1.002 -2.765,-2.097 -4.075,-3.235 0.643,-0.023 1.286,-0.042 1.929,-0.056 1.268,1.282 2.591,2.505 3.972,3.671 1.048,0.885 2.189,1.985 3.428,2.714 -0.238,0 -0.475,0.001 -0.712,0.002 z m 2.217,0.003 c -0.009,-0.091 -0.039,-0.179 -0.096,-0.25 -1.073,-1.331 -2.826,-2.273 -4.186,-3.314 -1.22,-0.934 -2.421,-1.892 -3.625,-2.846 0.662,-0.01 1.324,-0.017 1.985,-0.019 1.224,1.327 2.523,2.564 3.921,3.71 1.147,0.94 2.379,2.046 3.717,2.739 -0.574,-0.009 -1.146,-0.015 -1.716,-0.02 z m 2.798,0.038 c 0.07,-0.139 0.062,-0.309 -0.094,-0.463 -1.135,-1.11 -2.626,-1.901 -3.895,-2.861 -1.34,-1.013 -2.643,-2.075 -3.94,-3.142 0.34,0 0.68,-0.001 1.02,0.001 0.397,0.002 0.795,0.006 1.192,0.009 1.508,1.526 3.088,3.001 4.726,4.375 1.037,0.87 2.166,1.751 3.46,2.129 C 58.2,74.211 57.377,74.195 56.557,74.18 Z m 4.068,0.081 c 0.223,-0.255 0.146,-0.74 -0.244,-0.884 -3.255,-1.2 -5.75,-3.538 -8.447,-5.643 1.173,0.012 2.347,0.032 3.523,0.061 1.264,1.69 2.769,3.195 4.395,4.535 0.694,0.572 1.511,1.32 2.384,1.958 -0.537,-0.008 -1.074,-0.016 -1.611,-0.027 z m 4.411,0.058 c -1.169,-1.092 -2.967,-1.762 -4.223,-2.693 -1.561,-1.158 -2.967,-2.463 -4.357,-3.801 0.946,0.029 1.892,0.068 2.837,0.116 1.388,1.695 2.927,3.221 4.704,4.509 0.803,0.582 1.727,1.302 2.706,1.864 -0.555,0.004 -1.111,0.007 -1.667,0.005 z m 4.71,-0.068 c -1.344,-1.214 -3.348,-1.65 -4.897,-2.622 -1.665,-1.045 -3.194,-2.275 -4.604,-3.638 1.365,0.081 2.727,0.187 4.083,0.326 1.122,1.361 2.339,2.639 3.691,3.775 0.748,0.629 1.76,1.622 2.803,2.118 -0.357,0.016 -0.716,0.029 -1.076,0.041 z m 2.872,-0.144 c 0.005,-0.075 -0.008,-0.154 -0.051,-0.237 -0.653,-1.272 -2.707,-1.861 -3.864,-2.664 -1.176,-0.816 -2.245,-1.742 -3.231,-2.76 0.831,0.097 1.66,0.205 2.485,0.331 0.823,1.045 1.762,2.003 2.693,2.945 0.739,0.748 1.527,1.656 2.409,2.357 -0.146,0.011 -0.294,0.018 -0.441,0.028 z m 2.368,-0.197 c -0.887,-1.276 -2.489,-2.24 -3.645,-3.248 -0.609,-0.531 -1.205,-1.08 -1.808,-1.621 0.829,0.148 1.656,0.308 2.477,0.492 1.348,1.554 2.959,3.112 4.725,4.169 -0.582,0.077 -1.164,0.148 -1.749,0.208 z m 4.43,-0.632 c -0.081,-0.082 -0.174,-0.131 -0.278,-0.147 -1.102,-0.757 -2.452,-1.263 -3.571,-2.016 -0.496,-0.333 -0.958,-0.702 -1.428,-1.063 2.557,0.684 5.064,1.577 7.502,2.728 0.002,0.005 0,0.012 0.002,0.017 -0.737,0.179 -1.478,0.341 -2.227,0.481 z M 86.562,50.369 C 84.736,56.834 82.737,63.566 81.851,70.279 71.748,65.753 60.605,65.346 49.647,65.367 39.578,65.386 27.405,65.774 18.198,70.694 17.341,63.838 15.3,56.978 13.438,50.369 11.66,44.06 10.036,36.372 6.345,30.721 c 0.907,-0.002 1.77,-0.206 2.698,-0.008 1.067,0.227 2.065,0.754 2.823,1.541 0.756,0.785 1.285,1.843 1.546,2.892 0.155,0.625 0.14,1.26 0.321,1.854 -0.426,1.101 1.109,2.208 1.999,1.261 1.877,-1.997 4.817,-1.182 5.85,1.268 0.646,1.531 0.433,8.033 -2.395,6.672 -0.172,-0.201 -0.365,-0.292 -0.558,-0.318 -0.379,-0.214 -0.717,0.032 -0.848,0.38 -0.271,0.323 -0.405,0.785 -0.208,1.211 4.656,10.067 30.219,9.782 27.919,-2.843 0.284,-0.907 -0.343,-2.044 -1.5,-1.649 -3.258,1.112 -5.132,-2.049 -5.158,-4.917 -0.01,-1.095 0.027,-3.016 0.773,-3.883 0.775,-0.9 1.804,-1.027 2.855,-0.982 0.065,0.139 0.115,0.283 0.19,0.418 0.732,1.324 2.784,0.132 2.031,-1.187 -1.05,-1.839 -1.157,-4.175 0.302,-5.846 1.094,-1.252 2.732,-1.681 4.345,-1.713 0.04,0.022 0.08,0.045 0.135,0.04 0.177,-0.017 0.358,-0.024 0.538,-0.032 0.179,0.008 0.359,0.016 0.534,0.032 0.055,0.005 0.094,-0.018 0.133,-0.039 1.614,0.033 3.24,0.466 4.347,1.712 1.469,1.654 1.344,4.02 0.302,5.846 -0.752,1.317 1.298,2.512 2.031,1.187 0.073,-0.132 0.123,-0.274 0.186,-0.41 0.655,-0.015 1.275,0.069 1.97,0.466 1.489,0.851 1.689,2.743 1.661,4.39 -0.048,2.861 -1.867,6.04 -5.158,4.917 -1.155,-0.394 -1.785,0.743 -1.5,1.65 -2.301,12.629 23.268,12.899 27.919,2.842 0.195,-0.421 0.062,-0.884 -0.207,-1.209 -0.13,-0.348 -0.465,-0.595 -0.843,-0.386 -0.194,0.024 -0.389,0.117 -0.564,0.321 -2.825,1.358 -3.036,-5.155 -2.396,-6.671 1.03,-2.442 3.969,-3.27 5.85,-1.268 0.882,0.938 2.432,-0.152 1.999,-1.261 0.182,-0.594 0.165,-1.227 0.321,-1.854 0.263,-1.055 0.79,-2.1 1.546,-2.892 0.749,-0.786 1.762,-1.32 2.823,-1.541 0.945,-0.197 1.815,0.014 2.738,0.008 -3.715,5.669 -5.341,13.305 -7.133,19.649 z"
           id="path46"
           style="stroke:none;stroke-width:0.99982569;stroke-miterlimit:4;stroke-dasharray:none;stroke-dashoffset:0;stroke-opacity:1" />
        <path
           d="m 42.483,37.042 c -1.889,0 -1.892,2.936 0,2.936 1.89,0 1.893,-2.936 0,-2.936 z"
           id="path48"
           style="stroke:none;stroke-width:0.99982569;stroke-miterlimit:4;stroke-dasharray:none;stroke-dashoffset:0;stroke-opacity:1" />
        <path
           d="m 49.468,27.843 c -1.889,0 -1.892,2.936 0,2.936 1.889,0 1.892,-2.936 0,-2.936 z"
           id="path50"
           style="stroke:none;stroke-width:0.99982569;stroke-miterlimit:4;stroke-dasharray:none;stroke-dashoffset:0;stroke-opacity:1" />
        <path
           d="m 57.133,39.34 c 0.816,0 1.511,-0.694 1.511,-1.511 0,-0.819 -0.691,-1.511 -1.511,-1.511 -0.817,0 -1.511,0.694 -1.511,1.511 0,0.819 0.692,1.511 1.511,1.511 z"
           id="path52"
           style="stroke:none;stroke-width:0.99982569;stroke-miterlimit:4;stroke-dasharray:none;stroke-dashoffset:0;stroke-opacity:1" />
        <path
           d="m 81.152,40.611 c -1.9,0 -1.903,2.953 0,2.953 1.9,0 1.903,-2.953 0,-2.953 z"
           id="path54"
           style="stroke:none;stroke-width:0.99982569;stroke-miterlimit:4;stroke-dasharray:none;stroke-dashoffset:0;stroke-opacity:1" />
        <path
           d="m 19.146,43.381 c 1.775,0 1.778,-2.759 0,-2.759 -1.775,10e-4 -1.778,2.759 0,2.759 z"
           id="path56"
           style="stroke:none;stroke-width:0.99982569;stroke-miterlimit:4;stroke-dasharray:none;stroke-dashoffset:0;stroke-opacity:1" />
        <path
           d="m 47.325,61.658 c 0.004,0.019 0.008,0.038 0.013,0.056 0.112,0.505 0.586,0.973 1.088,1.088 0.019,0.004 0.038,0.009 0.057,0.013 1.58,0.362 2.815,-1.568 1.613,-2.77 -1.208,-1.207 -3.122,0.031 -2.771,1.613 z"
           id="path58"
           style="stroke:none;stroke-width:0.99982569;stroke-miterlimit:4;stroke-dasharray:none;stroke-dashoffset:0;stroke-opacity:1" />
        <path
           d="m 30.73,61.809 c -0.849,0 -1.571,0.722 -1.571,1.571 0,0.852 0.719,1.571 1.571,1.571 0.849,0 1.571,-0.722 1.571,-1.571 0,-0.852 -0.719,-1.571 -1.571,-1.571 z"
           id="path60"
           style="stroke:none;stroke-width:0.99982569;stroke-miterlimit:4;stroke-dasharray:none;stroke-dashoffset:0;stroke-opacity:1" />
        <path
           d="m 70.079,61.512 c -0.827,0 -1.528,0.699 -1.528,1.528 0,0.978 0.977,1.752 1.934,1.474 1.646,-0.479 1.34,-3.002 -0.406,-3.002 z"
           id="path62"
           style="stroke:none;stroke-width:0.99982569;stroke-miterlimit:4;stroke-dasharray:none;stroke-dashoffset:0;stroke-opacity:1" />
      </g>
    </g>
  </g>
</svg>
